<?xml version="1.0" ?>

<!DOCTYPE svg  PUBLIC '-//W3C//DTD SVG 1.1//EN'  'http://www.w3.org/Graphics/SVG/1.1/DTD/svg11.dtd'>

<!-- Uploaded to: SVG Repo, www.svgrepo.com, Generator: SVG Repo Mixer Tools -->
<svg width="115" height="100" viewBox="0 0 32 32" enable-background="new 0 0 32 32" version="1.1" xml:space="preserve" xmlns="http://www.w3.org/2000/svg" xmlns:xlink="http://www.w3.org/1999/xlink">

<g id="Layer_2"/>

<g id="Layer_3"/>

<g id="Layer_4"/>

<g id="Layer_5"/>

<g id="Layer_6"/>

<g id="Layer_7"/>

<g id="Layer_8"/>

<g id="Layer_9"/>

<g id="Layer_10"/>

<g id="Layer_11"/>

<g id="Layer_12"/>

<g id="Layer_13"/>

<g id="Layer_14"/>

<g id="Layer_15"/>

<g id="Layer_16"/>

<g id="Layer_17"/>

<g id="Layer_18"/>

<g id="Layer_19"/>

<g id="Layer_20"/>

<g id="Layer_21"/>

<g id="Layer_22"/>

<g id="Layer_23">

<g>

<path d="M24,22h-2.2695c-0.5527,0-1-0.4478-1-1s0.4473-1,1-1H24c2.7568,0,5-2.2432,5-5s-2.2432-5-5-5    c-0.0469,0-0.0879-0.0024-0.1289,0.0024c-0.499,0.0615-0.9658-0.2588-1.0898-0.7461C21.9941,6.1616,19.2051,4,16,4    c-3.8594,0-7,3.1401-7,7v0.1001c0,0.3027-0.1377,0.5894-0.373,0.7793c-0.2363,0.1895-0.5449,0.2622-0.8418,0.1973    C7.5537,12.0259,7.2891,12,7,12c-2.2061,0-4,1.7944-4,4s1.7939,4,4,4h3.2695c0.5527,0,1,0.4478,1,1s-0.4473,1-1,1H7    c-3.3086,0-6-2.6914-6-6s2.6914-6,6-6c0.0186,0,0.0371,0,0.0547,0C7.5537,5.5063,11.375,2,16,2    c3.8584,0,7.2471,2.438,8.4951,6.0171C28.125,8.272,31,11.3066,31,15C31,18.8599,27.8594,22,24,22z" fill="#0181B0"/>

</g>

<g>

<g>

<path d="M18,30h-4c-0.5527,0-1-0.4478-1-1v-1.8037l-1.5625,0.9019c-0.4775,0.2749-1.0898,0.1123-1.3662-0.3662     l-2-3.4639c-0.2764-0.478-0.1123-1.0898,0.3662-1.3657L9.999,22l-1.5615-0.9023C7.959,20.8218,7.7949,20.21,8.0713,19.7319     l2-3.4639c0.2764-0.4785,0.8887-0.6431,1.3662-0.3662L13,16.8037V15c0-0.5522,0.4473-1,1-1h4c0.5527,0,1,0.4478,1,1v1.8037     l1.5625-0.9019c0.4766-0.2769,1.0889-0.1123,1.3662,0.3662l2,3.4639c0.2764,0.478,0.1123,1.0898-0.3662,1.3657L22.001,22     l1.5615,0.9023c0.4785,0.2759,0.6426,0.8877,0.3662,1.3657l-2,3.4639c-0.2773,0.4785-0.8896,0.6411-1.3662,0.3662L19,27.1963V29     C19,29.5522,18.5527,30,18,30z M15,28h2v-1.4219c0-0.397,0.2344-0.7563,0.5986-0.916c0.248-0.1089,0.498-0.2568,0.7617-0.4512     c0.3203-0.2363,0.749-0.2603,1.0938-0.062l1.2422,0.7173l1-1.7324l-1.251-0.7222c-0.3428-0.1982-0.5371-0.5796-0.4941-0.9736     l0.0244-0.1929C19.9863,22.1646,20,22.084,20,22s-0.0137-0.1646-0.0244-0.2451l-0.0244-0.1929     c-0.043-0.394,0.1514-0.7754,0.4941-0.9736l1.251-0.7222l-1-1.7324l-1.2422,0.7173c-0.3438,0.1987-0.7734,0.1743-1.0938-0.062     c-0.2637-0.1943-0.5137-0.3423-0.7617-0.4512C17.2344,18.1782,17,17.8188,17,17.4219V16h-2v1.4219     c0,0.397-0.2344,0.7563-0.5986,0.916c-0.248,0.1089-0.498,0.2568-0.7617,0.4512c-0.3193,0.2363-0.749,0.2603-1.0938,0.062     l-1.2422-0.7173l-1,1.7324l1.251,0.7222c0.3428,0.1982,0.5371,0.5796,0.4941,0.9736l-0.0244,0.1929     C12.0137,21.8354,12,21.916,12,22s0.0137,0.1646,0.0244,0.2451l0.0244,0.1929c0.043,0.394-0.1514,0.7754-0.4941,0.9736     l-1.251,0.7222l1,1.7324l1.2422-0.7173c0.3457-0.1978,0.7744-0.1743,1.0938,0.062c0.2637,0.1943,0.5137,0.3423,0.7617,0.4512     C14.7656,25.8218,15,26.1812,15,26.5781V28z" fill="#F5D803"/>

</g>

<g>

<path d="M16,25c-1.6543,0-3-1.3457-3-3s1.3457-3,3-3s3,1.3457,3,3S17.6543,25,16,25z M16,21     c-0.5518,0-1,0.4487-1,1s0.4482,1,1,1s1-0.4487,1-1S16.5518,21,16,21z" fill="#00ACBA"/>

</g>

</g>

</g>

<g id="Layer_24"/>

<g id="Layer_25"/>

<g id="Layer_26"/>

</svg>